<svg width="42" height="42" viewBox="0 0 42 42" fill="none" xmlns="http://www.w3.org/2000/svg">
<path d="M21.0833 33.5833C21.0833 35.0417 21.3542 36.4375 21.8125 37.75H4.41667C3.3116 37.75 2.25179 37.311 1.47039 36.5296C0.688987 35.7482 0.25 34.6884 0.25 33.5833V4.41667C0.25 2.125 2.125 0.25 4.41667 0.25H33.5833C34.6884 0.25 35.7482 0.688987 36.5296 1.47039C37.311 2.25179 37.75 3.3116 37.75 4.41667V21.8125C36.4375 21.3542 35.0417 21.0833 33.5833 21.0833V4.41667H4.41667V33.5833H21.0833ZM23.0833 19.6042L17.3542 26.9792L13.2708 22.0625L7.54167 29.4167H21.8125C22.6458 27.0833 24.1458 25.0625 26.0833 23.6042L23.0833 19.6042ZM35.6667 31.5V25.25H31.5V31.5H25.25V35.6667H31.5V41.9167H35.6667V35.6667H41.9167V31.5H35.6667Z" fill="black"/>
</svg>
