<svg width="38" height="31" viewBox="0 0 38 31" fill="none" xmlns="http://www.w3.org/2000/svg">
<path d="M36.795 3.08192L12.795 30.0819C12.5841 30.3189 12.2981 30.4521 12 30.4521C11.7019 30.4521 11.416 30.3189 11.205 30.0819L0.705014 18.2694C0.506294 18.0295 0.398109 17.7122 0.403251 17.3843C0.408394 17.0564 0.526461 16.7436 0.732581 16.5117C0.9387 16.2798 1.21678 16.147 1.50823 16.1412C1.79968 16.1354 2.08175 16.2571 2.29501 16.4807L12 27.3967L35.205 1.29317C35.4183 1.06961 35.7003 0.947903 35.9918 0.953688C36.2832 0.959474 36.5613 1.0923 36.7674 1.32419C36.9736 1.55607 37.0916 1.86891 37.0968 2.19679C37.1019 2.52467 36.9937 2.842 36.795 3.08192Z" fill="black"/>
</svg>
