<svg width="34" height="39" viewBox="0 0 34 39" fill="none" xmlns="http://www.w3.org/2000/svg">
<path d="M31.97 38.1862L19.446 23.8358C18.446 24.812 17.296 25.5675 15.996 26.1022C14.696 26.6369 13.3894 26.9043 12.076 26.9043C8.87336 26.9043 6.16269 25.6339 3.94403 23.0933C1.72536 20.5526 0.616028 17.4474 0.616028 13.7776C0.616028 10.1079 1.72403 7.00117 3.94003 4.45742C6.15603 1.91367 8.86536 0.640268 12.068 0.637213C15.2707 0.634157 17.9827 1.90527 20.204 4.45055C22.4254 6.99582 23.5367 10.1026 23.538 13.7708C23.538 15.3627 23.292 16.9035 22.8 18.393C22.308 19.8826 21.6614 21.1568 20.86 22.2155L33.384 36.5637L31.97 38.1862ZM12.076 24.6103C14.7294 24.6103 16.97 23.5638 18.798 21.4708C20.626 19.3777 21.5394 16.8103 21.538 13.7685C21.5367 10.7267 20.6234 8.15999 18.798 6.06846C16.9727 3.97693 14.7327 2.93041 12.078 2.92888C9.42336 2.92735 7.18269 3.97388 5.35603 6.06846C3.52936 8.16304 2.61603 10.7297 2.61603 13.7685C2.61603 16.8072 3.52936 19.3739 5.35603 21.4685C7.18269 23.563 9.42269 24.6119 12.076 24.6103Z" fill="black"/>
</svg>
