<svg width="25" height="25" viewBox="0 0 25 25" fill="none" xmlns="http://www.w3.org/2000/svg">
<path d="M24.125 12.5002C24.1288 14.8081 23.4424 17.0645 22.1539 18.9792C21.0913 20.564 19.6546 21.8626 17.9708 22.7602C16.2871 23.6577 14.4081 24.1265 12.5 24.1252C10.5919 24.1265 8.71294 23.6577 7.02915 22.7602C5.34537 21.8626 3.90867 20.564 2.84608 18.9792C1.83436 17.4711 1.19004 15.7469 0.964779 13.9449C0.739516 12.1429 0.939577 10.3131 1.54892 8.60235C2.15827 6.89158 3.15995 5.34736 4.47367 4.09349C5.78739 2.83962 7.3766 1.91098 9.1139 1.38201C10.8512 0.853031 12.6883 0.738441 14.4779 1.04742C16.2674 1.3564 17.9597 2.08036 19.4191 3.16125C20.8784 4.24215 22.0642 5.64991 22.8815 7.2717C23.6987 8.89349 24.1246 10.6842 24.125 12.5002Z" stroke="black"/>
<path d="M14.4375 8.62516C14.4375 9.13902 14.2333 9.63183 13.87 9.99518C13.5066 10.3585 13.0138 10.5627 12.5 10.5627V11.8543C12.924 11.8543 13.3439 11.7708 13.7357 11.6085C14.1275 11.4462 14.4835 11.2084 14.7833 10.9085C15.0832 10.6087 15.321 10.2527 15.4833 9.86091C15.6456 9.46913 15.7291 9.04922 15.7291 8.62516H14.4375ZM12.5 10.5627C11.9861 10.5627 11.4933 10.3585 11.1299 9.99518C10.7666 9.63183 10.5625 9.13902 10.5625 8.62516H9.27079C9.27079 9.04922 9.35431 9.46913 9.51659 9.86091C9.67888 10.2527 9.91673 10.6087 10.2166 10.9085C10.8222 11.5141 11.6435 11.8543 12.5 11.8543V10.5627ZM10.5625 8.62516C10.5625 8.11131 10.7666 7.61849 11.1299 7.25514C11.4933 6.89179 11.9861 6.68766 12.5 6.68766V5.396C11.6435 5.396 10.8222 5.73621 10.2166 6.3418C9.611 6.94738 9.27079 7.76873 9.27079 8.62516H10.5625ZM12.5 6.68766C13.0138 6.68766 13.5066 6.89179 13.87 7.25514C14.2333 7.61849 14.4375 8.11131 14.4375 8.62516H15.7291C15.7291 7.76873 15.3889 6.94738 14.7833 6.3418C14.1777 5.73621 13.3564 5.396 12.5 5.396V6.68766ZM3.67271 20.0642L3.0527 19.8807L2.95325 20.2179L3.18187 20.4852L3.67271 20.0642ZM21.3272 20.0642L21.818 20.4852L22.0467 20.2179L21.9459 19.8807L21.3272 20.0642ZM8.62496 17.021H16.375V15.7293H8.62496V17.021ZM8.62496 15.7293C7.37325 15.7296 6.15502 16.1337 5.15134 16.8816C4.14766 17.6295 3.41081 18.6814 3.0527 19.8807L4.29141 20.2489C4.57023 19.3162 5.14251 18.4983 5.92324 17.9167C6.70396 17.3352 7.65146 17.0211 8.62496 17.021V15.7293ZM12.5 23.4793C10.9154 23.481 9.3494 23.1389 7.90992 22.4766C6.47045 21.8143 5.19182 20.8475 4.16225 19.6431L3.18187 20.4852C4.33281 21.8308 5.76189 22.9108 7.37058 23.6507C8.97926 24.3906 10.7293 24.7728 12.5 24.771V23.4793ZM16.375 17.021C17.3486 17.0212 18.2962 17.3355 19.077 17.9173C19.8577 18.499 20.4299 19.3172 20.7085 20.2502L21.9459 19.8807C21.5878 18.6814 20.8522 17.6295 19.8486 16.8816C18.8449 16.1337 17.6267 15.7296 16.375 15.7293V17.021ZM20.8377 19.6431C19.8081 20.8475 18.5295 21.8143 17.09 22.4766C15.6505 23.1389 14.0845 23.481 12.5 23.4793V24.771C14.2706 24.7728 16.0207 24.3906 17.6293 23.6507C19.238 22.9108 20.6671 21.8308 21.818 20.4852L20.8377 19.6431Z" fill="black"/>
</svg>
