<svg width="52" height="49" viewBox="0 0 52 49" fill="none" xmlns="http://www.w3.org/2000/svg">
<path d="M28.5105 1.53824L34.3755 13.2478C34.7833 14.0622 35.5719 14.6265 36.4841 14.7569L49.5991 16.6348C51.8965 16.964 52.8131 19.7449 51.1513 21.3406L41.6614 30.4552C41.0019 31.089 40.7003 32.0028 40.8565 32.8974L43.0964 45.7676C43.4891 48.0217 41.0876 49.7403 39.0331 48.6769L27.3033 42.6008C26.4876 42.1787 25.5124 42.1787 24.6967 42.6008L12.9669 48.6769C10.9124 49.7414 8.51093 48.0217 8.90359 45.7676L11.1435 32.8974C11.2997 32.0028 10.9981 31.089 10.3386 30.4552L0.848655 21.3406C-0.813097 19.7439 0.10347 16.9629 2.40085 16.6348L15.5159 14.7569C16.4281 14.6265 17.2167 14.0622 17.6245 13.2478L23.4895 1.53824C24.5156 -0.512748 27.4833 -0.512748 28.5105 1.53824Z" fill="#FFDC24"/>
</svg>
