<svg width="266" height="346" viewBox="0 0 266 346" fill="none" xmlns="http://www.w3.org/2000/svg">
<path d="M245.584 225.616C248.016 245.512 225.776 298.179 193.084 297.616C170.132 297.233 145.063 279.779 141.584 262.116C150.584 267.116 161.084 272.616 185.584 270.616C228.368 270.468 243.153 205.72 245.584 225.616Z" fill="#0B4D05" fill-opacity="0.99"/>
<path d="M216.597 287.27C217.279 286.97 218.038 287.494 217.999 288.238L217.59 295.997C217.586 296.076 217.592 296.155 217.606 296.233L218.775 302.468C218.915 303.212 218.209 303.836 217.488 303.605L206.584 300.116L196.276 298.207C195.308 298.028 195.155 296.705 196.056 296.308L216.597 287.27Z" fill="#0B4D05" fill-opacity="0.99"/>
<path d="M18.7656 225.616C16.3342 245.512 38.5739 298.179 71.2656 297.616C94.218 297.233 119.287 279.779 122.766 262.116C113.766 267.116 103.266 272.616 78.7656 270.616C35.9814 270.468 21.197 205.72 18.7656 225.616Z" fill="#0B4D05" fill-opacity="0.99"/>
<path d="M47.7523 287.27C47.0705 286.97 46.3118 287.494 46.351 288.238L46.7593 295.997C46.7635 296.076 46.7582 296.155 46.7436 296.233L45.5745 302.468C45.435 303.212 46.141 303.836 46.8622 303.605L57.7656 300.116L68.0735 298.207C69.0414 298.028 69.1952 296.705 68.2941 296.308L47.7523 287.27Z" fill="#0B4D05" fill-opacity="0.99"/>
<g filter="url(#filter0_d_31_2258)">
<path d="M241.584 219.318C209.584 289.818 161.107 267.318 155.584 267.318C150.062 267.318 191.084 277.318 206.584 215.818C206.584 153.962 142.584 115.818 157.584 47.3181C179.084 149.818 241.584 139.818 241.584 219.318Z" fill="#465430"/>
</g>
<g filter="url(#filter1_d_31_2258)">
<path fill-rule="evenodd" clip-rule="evenodd" d="M183.945 23.6301C186.201 22.9358 188.523 22.4731 190.873 22.2492L192.571 22.0876C196.267 21.7356 199.994 21.9095 203.642 22.6043L205.462 22.951C207.802 23.3966 210.069 24.1628 212.199 25.228C215.62 26.9384 218.619 29.3851 220.982 32.3925L223.839 36.0288L221.874 37.5733L219.016 33.937C216.882 31.22 214.172 29.0094 211.081 27.4641C209.156 26.5017 207.108 25.8094 204.994 25.4068L203.174 25.0601C199.759 24.4096 196.269 24.2467 192.808 24.5763L191.11 24.738C188.929 24.9457 186.774 25.3751 184.68 26.0196C182.613 26.6555 180.616 27.4974 178.718 28.5328L176.22 29.8953L174.014 31.2988C171.925 32.6283 169.988 34.1825 168.236 35.9336C167.101 37.0692 166.047 38.2841 165.084 39.5689L163.309 41.9352C162.539 42.9616 161.863 44.0553 161.289 45.2029C160.296 47.1901 159.618 49.32 159.28 51.5159L158.82 54.5082C158.715 55.1905 158.076 55.6586 157.394 55.5536C156.712 55.4486 156.244 54.8104 156.349 54.1281L156.809 51.1358C157.186 48.6832 157.944 46.3043 159.053 44.0848C159.694 42.8031 160.449 41.5816 161.309 40.4352L163.084 38.0689C164.118 36.6894 165.249 35.3851 166.469 34.1658C168.349 32.2857 170.429 30.6171 172.672 29.1896L174.949 27.7409L177.52 26.3381C179.566 25.2225 181.718 24.3153 183.945 23.6301Z" fill="#465430"/>
</g>
<path d="M230.584 65.3181C228.584 85.3181 205.122 87.8181 202.084 87.8181C199.047 87.8181 219.584 81.6105 219.584 65.3181C226.584 53.8181 219.047 34.8181 222.084 34.8181C225.122 34.8181 231.084 48.8181 230.584 65.3181Z" fill="#465430"/>
<path d="M209.584 63.3181C209.584 72.4308 206.368 86.8181 198.084 86.8181C188.584 88.3181 179.084 76.4308 179.084 67.3181C179.084 58.2054 187.3 48.3181 195.584 48.3181C203.868 48.3181 209.584 54.2054 209.584 63.3181Z" fill="#465430"/>
<path d="M222.084 78.8181C222.084 83.2364 205.7 88.2073 199.084 87.8181C182.084 86.8181 209.084 73.2364 209.084 68.8181C209.084 64.3998 212.084 76.3181 219.584 65.8181C226.212 65.8181 222.084 74.3998 222.084 78.8181Z" fill="#465430"/>
<path fill-rule="evenodd" clip-rule="evenodd" d="M147.568 141.866C147.41 141.075 147.33 140.27 147.33 139.463C147.33 138.788 147.386 138.114 147.497 137.449L147.581 136.946C147.72 136.108 147.925 135.283 148.194 134.477C148.835 132.555 149.83 130.768 151.127 129.211L151.439 128.837L153.843 126.434L156.791 123.977C157.427 123.447 157.513 122.501 156.983 121.864C156.452 121.228 155.506 121.142 154.87 121.672L151.818 124.216L149.221 126.812L148.823 127.291C147.286 129.135 146.107 131.251 145.348 133.529C145.03 134.483 144.787 135.46 144.622 136.452L144.538 136.955C144.4 137.784 144.33 138.623 144.33 139.463C144.33 140.467 144.429 141.469 144.626 142.454L144.866 143.654L145.392 145.757L146.941 150.145L149.012 154.546L160.071 172.14L171.041 188.596L174.96 195.944L177.941 203.893L179.921 208.347L181.369 213.176L182.341 218.522L182.83 224.387L182.83 235.275C182.83 236.841 182.679 238.404 182.377 239.94L181.821 241.608C180.906 244.355 179.797 247.034 178.503 249.625L176.06 254.022L173.61 257.453C173.128 258.127 173.284 259.064 173.958 259.545C174.633 260.027 175.569 259.871 176.051 259.197L178.6 255.628L181.142 251.053L179.83 250.325L181.172 250.996C182.535 248.269 183.703 245.449 184.668 242.556L185.253 240.799L183.83 240.325L185.301 240.619C185.653 238.859 185.83 237.07 185.83 235.275L185.83 224.262L185.319 218.128L184.291 212.474L182.74 207.303L180.719 202.756L177.7 194.706L173.619 187.054L162.59 170.509L151.649 153.104L149.72 149.004L148.268 144.892L147.794 142.996L147.568 141.866Z" fill="#6A7B4E"/>
<path d="M145.084 196.818C148.584 227.818 144.584 216.818 132.084 204.818C118.084 217.318 114.084 230.818 119.584 196.818C117.084 187.818 125.457 156.818 132.084 156.818C138.712 156.818 147.084 181.318 145.084 196.818Z" fill="#84C5F8"/>
<path d="M152.173 237.259C152.173 250.238 141.112 264.259 149.673 264.259C158.233 264.259 178.173 259.759 178.173 222.259C178.173 209.281 171.733 220.259 163.173 220.259C125.673 200.759 152.173 224.281 152.173 237.259Z" fill="#84C5F8"/>
<path d="M152.173 237.259C152.173 250.238 141.112 264.259 149.673 264.259C158.233 264.259 178.173 259.759 178.173 222.259C178.173 209.281 171.733 220.259 163.173 220.259C125.673 200.759 152.173 224.281 152.173 237.259Z" fill="#84C5F8"/>
<path d="M140.084 206.225C140.084 214.786 148.785 225.725 154.584 225.725C167.084 228.725 160.084 216.725 163.084 201.725C163.084 193.165 170.584 192.225 151.584 195.725C145.785 195.725 140.084 197.665 140.084 206.225Z" fill="#84C5F8"/>
<path d="M111.584 237.818C111.584 250.797 122.645 264.818 114.084 264.818C105.524 264.818 85.5841 260.318 85.5841 222.818C85.5841 209.839 92.0237 220.818 100.584 220.818C138.084 201.318 111.584 224.839 111.584 237.818Z" fill="#84C5F8"/>
<path d="M111.584 237.818C111.584 250.797 122.645 264.818 114.084 264.818C105.524 264.818 85.5841 260.318 85.5841 222.818C85.5841 209.839 92.0237 220.818 100.584 220.818C138.084 201.318 111.584 224.839 111.584 237.818Z" fill="#84C5F8"/>
<path d="M123.584 205.818C123.584 214.379 114.883 225.318 109.084 225.318C96.5841 228.318 103.584 216.318 100.584 201.318C100.584 192.758 93.0841 191.818 112.084 195.318C117.883 195.318 123.584 197.258 123.584 205.818Z" fill="#84C5F8"/>
<g filter="url(#filter2_d_31_2258)">
<path d="M23.1965 206.27C22.3534 214.783 24.245 223.404 28.4458 230.856C60.1892 287.166 103.389 267.258 108.584 267.258C113.881 267.258 76.3655 276.456 59.6115 222.958C58.1339 218.24 57.4845 213.238 57.8932 208.311C62.6687 150.743 120.973 112.967 106.584 47.258C86.333 143.804 29.707 140.54 23.1965 206.27Z" fill="#465430"/>
</g>
<g filter="url(#filter3_d_31_2258)">
<path fill-rule="evenodd" clip-rule="evenodd" d="M76.8297 22.5258L66.0253 21.4968L55.18 23.5625L46.7744 27.7653L40.329 35.9686L42.2947 37.5132L48.3938 29.7507L55.9882 25.9535L66.143 24.0193L76.3385 24.9903L82.5961 26.9157L87.9486 29.8352L93.2973 33.2389L97.6374 37.5791L102.016 43.4178L104.378 48.1418L105.349 54.4481C105.454 55.1304 106.092 55.5984 106.774 55.4935C107.457 55.3885 107.925 54.7503 107.82 54.0679L106.79 47.3743L104.152 42.0982L99.5308 35.937L94.871 31.2771L89.2197 27.6808L83.5721 24.6003L76.8297 22.5258Z" fill="#465430"/>
</g>
<path d="M33.5839 65.2581C35.5841 85.2581 59.0466 87.7581 62.0841 87.7581C65.1217 87.7581 44.5839 81.5505 44.5839 65.2581C37.5841 53.7581 45.1216 34.7581 42.0841 34.7581C39.0465 34.7581 33.0841 48.7581 33.5839 65.2581Z" fill="#465430"/>
<path d="M54.5841 63.2581C54.5841 72.3708 57.7998 86.7581 66.0841 86.7581C75.5841 88.2581 85.0841 76.3708 85.0841 67.2581C85.0841 58.1454 76.8684 48.2581 68.5841 48.2581C60.2998 48.2581 54.5841 54.1454 54.5841 63.2581Z" fill="#465430"/>
<path d="M42.0842 78.7581C42.0842 83.1763 58.4681 88.1472 65.0841 87.7581C82.0841 86.7581 55.0841 73.1763 55.0841 68.7581C55.0841 64.3398 52.0842 76.2581 44.5842 65.7581C37.9568 65.7581 42.0842 74.3398 42.0842 78.7581Z" fill="#465430"/>
<path fill-rule="evenodd" clip-rule="evenodd" d="M114.084 141.866C114.242 141.075 114.322 140.27 114.322 139.463C114.322 138.788 114.266 138.114 114.155 137.449L114.071 136.946C113.931 136.108 113.726 135.283 113.458 134.478C112.817 132.555 111.822 130.769 110.524 129.211L110.213 128.837L107.809 126.434L104.861 123.977C104.225 123.447 104.139 122.501 104.669 121.865C105.2 121.228 106.145 121.142 106.782 121.673L109.834 124.216L112.43 126.812L112.829 127.291C114.366 129.135 115.545 131.251 116.304 133.529C116.622 134.483 116.865 135.46 117.03 136.452L117.114 136.956C117.252 137.784 117.322 138.623 117.322 139.463C117.322 140.468 117.222 141.469 117.025 142.454L116.785 143.654L116.26 145.757L114.711 150.145L112.64 154.546L101.581 172.14L90.6104 188.596L86.6914 195.944L83.7103 203.893L81.7309 208.347L80.2823 213.176L79.3103 218.522L78.8215 224.387L78.8215 235.275C78.8215 236.841 78.9732 238.404 79.2745 239.941L79.8303 241.608C80.7461 244.355 81.855 247.034 83.1487 249.625L85.5915 254.022L88.0421 257.453C88.5236 258.127 88.3675 259.064 87.6934 259.546C87.0192 260.027 86.0824 259.871 85.6009 259.197L83.0515 255.628L80.5103 251.053L81.8215 250.325L80.4799 250.996C79.1165 248.269 77.9483 245.449 76.9843 242.557L76.3985 240.799L77.8215 240.325L76.3506 240.619C75.9987 238.86 75.8215 237.07 75.8215 235.275L75.8215 224.263L76.3327 218.128L77.3607 212.474L78.9121 207.303L80.9327 202.756L83.9516 194.706L88.0326 187.054L99.0623 170.51L110.003 153.104L111.932 149.004L113.383 144.892L113.858 142.996L114.084 141.866Z" fill="#6A7B4E"/>
<path d="M147.084 238.818C147.084 252.073 140.868 264.318 132.584 264.318C124.3 264.318 117.084 252.073 117.084 238.818C117.084 225.563 125.584 211.818 132.584 209.318C140.584 213.318 147.084 225.563 147.084 238.818Z" fill="#465430"/>
<path d="M124.084 265.818C142.084 274.818 123.084 288.318 110.084 295.318C95.0842 297.318 84.0842 330.274 84.0842 322.818C84.0842 315.362 67.5841 308.318 79.0841 298.818C93.4436 298.818 119.084 281.318 124.084 265.818Z" fill="#6A7B4E"/>
<path d="M124.084 265.818C142.084 274.818 123.084 288.318 110.084 295.318C95.0842 297.318 84.0842 330.274 84.0842 322.818C84.0842 315.362 67.5841 308.318 79.0841 298.818C93.4436 298.818 119.084 281.318 124.084 265.818Z" fill="#6A7B4E"/>
<path d="M139.959 265.818C121.959 274.818 140.959 288.318 153.959 295.318C168.959 297.318 179.959 330.274 179.959 322.818C179.959 315.362 196.459 308.318 184.959 298.818C170.599 298.818 144.959 281.318 139.959 265.818Z" fill="#6A7B4E"/>
<path d="M139.959 265.818C121.959 274.818 140.959 288.318 153.959 295.318C168.959 297.318 179.959 330.274 179.959 322.818C179.959 315.362 196.459 308.318 184.959 298.818C170.599 298.818 144.959 281.318 139.959 265.818Z" fill="#6A7B4E"/>
<path d="M148.084 306.818C148.084 318.416 141.421 324.318 132.584 324.318C123.748 324.318 117.584 318.416 117.584 306.818C117.584 295.22 123.748 286.818 132.584 286.818C141.421 286.818 148.084 295.22 148.084 306.818Z" fill="#BBBB6C"/>
<path d="M158.584 306.318C161.584 323.818 148.824 343.818 133.084 343.818C117.344 343.818 104.584 321.818 106.584 306.318C110.584 300.818 117.084 330.318 132.584 326.818C150.584 331.818 153.084 292.818 158.584 306.318Z" fill="#3C4318"/>
<path d="M146.584 27.8181C146.584 41.6252 140.764 52.8181 133.584 52.8181C126.404 52.8181 120.584 41.6252 120.584 27.8181C120.584 14.011 126.404 2.81812 133.584 2.81812C140.764 2.81812 146.584 14.011 146.584 27.8181Z" fill="#BBBB6C"/>
<defs>
<filter id="filter0_d_31_2258" x="151.077" y="22.0601" width="94.5074" height="256.673" filterUnits="userSpaceOnUse" color-interpolation-filters="sRGB">
<feFlood flood-opacity="0" result="BackgroundImageFix"/>
<feColorMatrix in="SourceAlpha" type="matrix" values="0 0 0 0 0 0 0 0 0 0 0 0 0 0 0 0 0 0 127 0" result="hardAlpha"/>
<feOffset dy="4"/>
<feGaussianBlur stdDeviation="2"/>
<feComposite in2="hardAlpha" operator="out"/>
<feColorMatrix type="matrix" values="0 0 0 0 0 0 0 0 0 0 0 0 0 0 0 0 0 0 0.25 0"/>
<feBlend mode="normal" in2="BackgroundImageFix" result="effect1_dropShadow_31_2258"/>
<feBlend mode="normal" in="SourceGraphic" in2="effect1_dropShadow_31_2258" result="shape"/>
</filter>
<filter id="filter1_d_31_2258" x="152.334" y="21.9106" width="75.5053" height="41.6577" filterUnits="userSpaceOnUse" color-interpolation-filters="sRGB">
<feFlood flood-opacity="0" result="BackgroundImageFix"/>
<feColorMatrix in="SourceAlpha" type="matrix" values="0 0 0 0 0 0 0 0 0 0 0 0 0 0 0 0 0 0 127 0" result="hardAlpha"/>
<feOffset dy="4"/>
<feGaussianBlur stdDeviation="2"/>
<feComposite in2="hardAlpha" operator="out"/>
<feColorMatrix type="matrix" values="0 0 0 0 0 0 0 0 0 0 0 0 0 0 0 0 0 0 0.25 0"/>
<feBlend mode="normal" in2="BackgroundImageFix" result="effect1_dropShadow_31_2258"/>
<feBlend mode="normal" in="SourceGraphic" in2="effect1_dropShadow_31_2258" result="shape"/>
</filter>
<filter id="filter2_d_31_2258" x="19" y="22" width="94.0916" height="256.673" filterUnits="userSpaceOnUse" color-interpolation-filters="sRGB">
<feFlood flood-opacity="0" result="BackgroundImageFix"/>
<feColorMatrix in="SourceAlpha" type="matrix" values="0 0 0 0 0 0 0 0 0 0 0 0 0 0 0 0 0 0 127 0" result="hardAlpha"/>
<feOffset dy="4"/>
<feGaussianBlur stdDeviation="2"/>
<feComposite in2="hardAlpha" operator="out"/>
<feColorMatrix type="matrix" values="0 0 0 0 0 0 0 0 0 0 0 0 0 0 0 0 0 0 0.25 0"/>
<feBlend mode="normal" in2="BackgroundImageFix" result="effect1_dropShadow_31_2258"/>
<feBlend mode="normal" in="SourceGraphic" in2="effect1_dropShadow_31_2258" result="shape"/>
</filter>
<filter id="filter3_d_31_2258" x="36.329" y="21.4967" width="75.5053" height="42.0115" filterUnits="userSpaceOnUse" color-interpolation-filters="sRGB">
<feFlood flood-opacity="0" result="BackgroundImageFix"/>
<feColorMatrix in="SourceAlpha" type="matrix" values="0 0 0 0 0 0 0 0 0 0 0 0 0 0 0 0 0 0 127 0" result="hardAlpha"/>
<feOffset dy="4"/>
<feGaussianBlur stdDeviation="2"/>
<feComposite in2="hardAlpha" operator="out"/>
<feColorMatrix type="matrix" values="0 0 0 0 0 0 0 0 0 0 0 0 0 0 0 0 0 0 0.25 0"/>
<feBlend mode="normal" in2="BackgroundImageFix" result="effect1_dropShadow_31_2258"/>
<feBlend mode="normal" in="SourceGraphic" in2="effect1_dropShadow_31_2258" result="shape"/>
</filter>
</defs>
</svg>
