<svg width="46" height="54" viewBox="0 0 46 54" fill="none" xmlns="http://www.w3.org/2000/svg">
<g clip-path="url(#clip0_34_2357)">
<path d="M42.4695 35.2119C42.89 38.317 39.044 46.5367 33.3905 46.4489C29.4214 46.3891 25.0861 43.6651 24.4845 40.9084C26.0409 41.6887 27.8567 42.5471 32.0935 42.235C39.4923 42.2119 42.0491 32.1067 42.4695 35.2119Z" fill="#0B4D05" fill-opacity="0.99"/>
<path d="M37.4566 44.834C37.5746 44.7872 37.7058 44.8689 37.6991 44.9851L37.6283 46.196C37.6276 46.2083 37.6287 46.2207 37.6311 46.2328L37.8333 47.2059C37.8575 47.322 37.7354 47.4194 37.6107 47.3834L35.725 46.8388L33.9425 46.5409C33.7751 46.513 33.7486 46.3065 33.9044 46.2445L37.4566 44.834Z" fill="#0B4D05" fill-opacity="0.99"/>
<path d="M3.24512 35.2119C2.82466 38.317 6.67062 46.5367 12.3241 46.4489C16.2933 46.3891 20.6285 43.6651 21.2302 40.9084C19.6738 41.6887 17.858 42.5471 13.6211 42.235C6.22229 42.2119 3.66559 32.1067 3.24512 35.2119Z" fill="#0B4D05" fill-opacity="0.99"/>
<path d="M8.25786 44.834C8.13995 44.7872 8.00875 44.8689 8.01553 44.9851L8.08614 46.196C8.08686 46.2083 8.08594 46.2207 8.08342 46.2328L7.88124 47.2059C7.85712 47.322 7.97921 47.4194 8.10393 47.3834L9.98948 46.8388L11.772 46.5409C11.9394 46.513 11.966 46.3065 11.8102 46.2445L8.25786 44.834Z" fill="#0B4D05" fill-opacity="0.99"/>
<g filter="url(#filter0_d_34_2357)">
<path d="M41.7777 34.2289C36.2439 45.2318 27.8606 41.7202 26.9055 41.7202C25.9506 41.7202 33.0446 43.2809 35.7251 33.6827C35.7251 24.0289 24.6574 18.0757 27.2514 7.38501C30.9694 23.3821 41.7777 21.8214 41.7777 34.2289Z" fill="#465430"/>
</g>
<g filter="url(#filter1_d_34_2357)">
<path fill-rule="evenodd" clip-rule="evenodd" d="M31.8101 3.68802C32.2002 3.57966 32.6017 3.50745 33.0081 3.47251L33.3018 3.44728C33.9409 3.39235 34.5855 3.41949 35.2163 3.52793L35.531 3.58204C35.9357 3.65158 36.3277 3.77116 36.6961 3.93741C37.2877 4.20435 37.8063 4.5862 38.215 5.05556L38.709 5.62308L38.3692 5.86413L37.875 5.29661C37.5059 4.87257 37.0373 4.52757 36.5028 4.28639C36.1699 4.13619 35.8157 4.02814 35.4501 3.96531L35.1354 3.9112C34.5448 3.80968 33.9413 3.78425 33.3428 3.83569L33.0491 3.86093C32.672 3.89335 32.2993 3.96036 31.9372 4.06095C31.5797 4.16019 31.2344 4.29159 30.9061 4.45318L30.4742 4.66583L30.0927 4.88487C29.7314 5.09237 29.3964 5.33493 29.0935 5.60822C28.8972 5.78545 28.7149 5.97506 28.5484 6.17558L28.2414 6.54489C28.1083 6.70508 27.9914 6.87577 27.8921 7.05487C27.7204 7.36502 27.6031 7.69743 27.5447 8.04014L27.4651 8.50715C27.447 8.61363 27.3365 8.68669 27.2185 8.6703C27.1006 8.65391 27.0197 8.55431 27.0378 8.44783L27.1174 7.98082C27.1826 7.59804 27.3136 7.22677 27.5054 6.88037C27.6163 6.68034 27.7468 6.4897 27.8956 6.31078L28.2025 5.94148C28.3813 5.72618 28.5769 5.52262 28.7879 5.33232C29.113 5.0389 29.4727 4.77848 29.8606 4.55569L30.2544 4.32959L30.699 4.11066C31.0528 3.93655 31.4249 3.79496 31.8101 3.68802Z" fill="#465430"/>
</g>
<path d="M39.8755 10.1942C39.5296 13.3156 35.4723 13.7058 34.9469 13.7058C34.4217 13.7058 37.9732 12.7369 37.9732 10.1942C39.1838 8.3994 37.8804 5.43408 38.4056 5.43408C38.9309 5.43408 39.962 7.61905 39.8755 10.1942Z" fill="#465430"/>
<path d="M36.2438 9.88206C36.2438 11.3043 35.6876 13.5497 34.2551 13.5497C32.6122 13.7838 30.9694 11.9285 30.9694 10.5063C30.9694 9.08412 32.3902 7.54102 33.8227 7.54102C35.2553 7.54102 36.2438 8.45984 36.2438 9.88206Z" fill="#465430"/>
<path d="M38.4055 12.3011C38.4055 12.9907 35.5721 13.7665 34.428 13.7057C31.4882 13.5497 36.1573 11.43 36.1573 10.7404C36.1573 10.0509 36.6761 11.9109 37.9731 10.2722C39.1193 10.2722 38.4055 11.6116 38.4055 12.3011Z" fill="#465430"/>
<path fill-rule="evenodd" clip-rule="evenodd" d="M25.5193 22.141C25.492 22.0175 25.4781 21.8919 25.4781 21.7659C25.4781 21.6606 25.4878 21.5554 25.507 21.4516L25.5216 21.3731C25.5456 21.2423 25.581 21.1135 25.6276 20.9878C25.7384 20.6878 25.9105 20.4089 26.1348 20.1659L26.1887 20.1075L26.6045 19.7325L27.1143 19.349C27.2242 19.2663 27.2391 19.1187 27.1475 19.0193C27.0556 18.92 26.892 18.9066 26.7821 18.9893L26.2543 19.3863L25.8052 19.7915L25.7363 19.8662C25.4705 20.154 25.2667 20.4843 25.1354 20.8398C25.0804 20.9887 25.0384 21.1412 25.0098 21.296L24.9953 21.3745C24.9715 21.5039 24.9594 21.6348 24.9594 21.7659C24.9594 21.9226 24.9765 22.079 25.0105 22.2327L25.052 22.42L25.143 22.7482L25.4109 23.4331L25.769 24.1199L27.6815 26.8658L29.5785 29.4341L30.2563 30.5809L30.7718 31.8215L31.1142 32.5166L31.3646 33.2703L31.5327 34.1046L31.6172 35.02V36.7192C31.6172 36.9636 31.5911 37.2076 31.5389 37.4473L31.4428 37.7076C31.2845 38.1363 31.0927 38.5545 30.869 38.9588L30.4465 39.6451L30.0228 40.1805C29.9395 40.2857 29.9664 40.432 30.083 40.507C30.1997 40.5823 30.3616 40.5579 30.4449 40.4527L30.8857 39.8957L31.3253 39.1817L31.0984 39.0681L31.3305 39.1728C31.5662 38.7472 31.7682 38.3071 31.9351 37.8556L32.0363 37.5814L31.7902 37.5074L32.0446 37.5533C32.1054 37.2786 32.136 36.9994 32.136 36.7192V35.0004L32.0477 34.0431L31.8699 33.1607L31.6017 32.3537L31.2522 31.644L30.7301 30.3877L30.0244 29.1934L28.1171 26.6112L26.225 23.8949L25.8915 23.255L25.6404 22.6132L25.5584 22.3173L25.5193 22.141Z" fill="#6A7B4E"/>
<path d="M25.0897 30.7171C25.695 35.5553 25.0033 33.8385 22.8416 31.9657C20.4206 33.9166 19.7288 36.0235 20.68 30.7171C20.2476 29.3125 21.6956 24.4744 22.8416 24.4744C23.9878 24.4744 25.4356 28.2981 25.0897 30.7171Z" fill="#84C5F8"/>
<path d="M26.3156 37.0289C26.3156 39.0545 24.4028 41.2428 25.8833 41.2428C27.3636 41.2428 30.8119 40.5404 30.8119 34.6878C30.8119 32.6624 29.6982 34.3757 28.2179 34.3757C21.7329 31.3323 26.3156 35.0034 26.3156 37.0289Z" fill="#84C5F8"/>
<path d="M26.3156 37.0289C26.3156 39.0545 24.4028 41.2428 25.8833 41.2428C27.3636 41.2428 30.8119 40.5404 30.8119 34.6878C30.8119 32.6624 29.6982 34.3757 28.2179 34.3757C21.7329 31.3323 26.3156 35.0034 26.3156 37.0289Z" fill="#84C5F8"/>
<path d="M24.2251 32.1854C24.2251 33.5215 25.7298 35.2287 26.7326 35.2287C28.8943 35.6969 27.6837 33.8241 28.2025 31.4831C28.2025 30.1471 29.4995 30.0004 26.2138 30.5466C25.211 30.5466 24.2251 30.8494 24.2251 32.1854Z" fill="#84C5F8"/>
<path d="M19.2965 37.1161C19.2965 39.1417 21.2093 41.3299 19.7288 41.3299C18.2485 41.3299 14.8003 40.6276 14.8003 34.775C14.8003 32.7494 15.9139 34.4629 17.3943 34.4629C23.8792 31.4195 19.2965 35.0904 19.2965 37.1161Z" fill="#84C5F8"/>
<path d="M19.2965 37.1161C19.2965 39.1417 21.2093 41.3299 19.7288 41.3299C18.2485 41.3299 14.8003 40.6276 14.8003 34.775C14.8003 32.7494 15.9139 34.4629 17.3943 34.4629C23.8792 31.4195 19.2965 35.0904 19.2965 37.1161Z" fill="#84C5F8"/>
<path d="M21.3717 32.1219C21.3717 33.458 19.867 35.1652 18.8642 35.1652C16.7026 35.6335 17.9131 33.7606 17.3943 31.4196C17.3943 30.0836 16.0973 29.9369 19.383 30.4832C20.3858 30.4832 21.3717 30.7859 21.3717 32.1219Z" fill="#84C5F8"/>
<g filter="url(#filter2_d_34_2357)">
<path d="M4.0114 32.1924C3.8656 33.521 4.19272 34.8665 4.91918 36.0295C10.4086 44.8178 17.8793 41.7108 18.7777 41.7108C19.6937 41.7108 13.206 43.1463 10.3087 34.7969C10.0532 34.0605 9.94091 33.2799 10.0116 32.5109C10.8374 23.5263 20.9201 17.6307 18.4318 7.37549C14.9297 22.4434 5.13728 21.934 4.0114 32.1924Z" fill="#465430"/>
</g>
<g filter="url(#filter3_d_34_2357)">
<path fill-rule="evenodd" clip-rule="evenodd" d="M13.2864 3.51558L11.418 3.35498L9.54246 3.67737L8.08886 4.3333L6.97424 5.61359L7.31418 5.85465L8.36891 4.64316L9.68223 4.05053L11.4383 3.74867L13.2015 3.90021L14.2836 4.2007L15.2092 4.65635L16.1342 5.18756L16.8847 5.86493L17.6419 6.77618L18.0504 7.51345L18.2183 8.49767C18.2365 8.60416 18.3468 8.6772 18.4647 8.66082C18.5828 8.64444 18.6638 8.54483 18.6456 8.43833L18.4675 7.39366L18.0113 6.57023L17.2121 5.60865L16.4063 4.88139L15.429 4.32011L14.4524 3.83934L13.2864 3.51558Z" fill="#465430"/>
</g>
<path d="M5.80772 10.1847C6.15362 13.3061 10.211 13.6962 10.7363 13.6962C11.2616 13.6962 7.70998 12.7274 7.70998 10.1847C6.49949 8.38988 7.80296 5.42456 7.27768 5.42456C6.75238 5.42456 5.72129 7.60953 5.80772 10.1847Z" fill="#465430"/>
<path d="M9.43933 9.87253C9.43933 11.2947 9.99543 13.5402 11.4281 13.5402C13.0709 13.7743 14.7138 11.919 14.7138 10.4968C14.7138 9.0746 13.293 7.53149 11.8604 7.53149C10.4278 7.53149 9.43933 8.45032 9.43933 9.87253Z" fill="#465430"/>
<path d="M7.27771 12.2918C7.27771 12.9814 10.111 13.7572 11.2551 13.6965C14.195 13.5404 9.52581 11.4207 9.52581 10.7311C9.52581 10.0416 9.00703 11.9017 7.71004 10.2629C6.56394 10.2629 7.27771 11.6023 7.27771 12.2918Z" fill="#465430"/>
<path fill-rule="evenodd" clip-rule="evenodd" d="M19.7288 22.1409C19.7561 22.0175 19.7699 21.8918 19.7699 21.7659C19.7699 21.6605 19.7602 21.5553 19.741 21.4516L19.7265 21.373C19.7023 21.2423 19.6669 21.1135 19.6205 20.9879C19.5097 20.6877 19.3376 20.409 19.1131 20.1659L19.0593 20.1075L18.6436 19.7324L18.1338 19.349C18.0238 19.2663 18.0089 19.1186 18.1006 19.0194C18.1924 18.9199 18.3559 18.9065 18.466 18.9894L18.9938 19.3863L19.4427 19.7914L19.5117 19.8662C19.7775 20.154 19.9814 20.4842 20.1127 20.8398C20.1677 20.9887 20.2097 21.1411 20.2382 21.2959L20.2527 21.3746C20.2766 21.5038 20.2887 21.6348 20.2887 21.7659C20.2887 21.9227 20.2714 22.0789 20.2374 22.2327L20.1959 22.42L20.1051 22.7482L19.8372 23.433L19.479 24.1199L17.5666 26.8658L15.6694 29.434L14.9917 30.5808L14.4762 31.8214L14.1339 32.5166L13.8834 33.2702L13.7153 34.1046L13.6307 35.0199V36.7192C13.6307 36.9636 13.657 37.2075 13.7091 37.4474L13.8052 37.7076C13.9636 38.1363 14.1553 38.5544 14.379 38.9588L14.8015 39.645L15.2253 40.1805C15.3085 40.2857 15.2815 40.4319 15.165 40.5072C15.0484 40.5822 14.8864 40.5579 14.8031 40.4527L14.3622 39.8957L13.9228 39.1817L14.1495 39.068L13.9175 39.1728C13.6817 38.7472 13.4797 38.307 13.313 37.8557L13.2117 37.5813L13.4578 37.5073L13.2034 37.5532C13.1426 37.2787 13.1119 36.9993 13.1119 36.7192V35.0006L13.2003 34.0431L13.3781 33.1607L13.6464 32.3536L13.9958 31.644L14.5179 30.3876L15.2236 29.1934L17.131 26.6114L19.023 23.8948L19.3566 23.2549L19.6075 22.6132L19.6897 22.3173L19.7288 22.1409Z" fill="#6A7B4E"/>
<path d="M25.4355 37.2723C25.4355 39.341 24.3606 41.252 22.928 41.252C21.4954 41.252 20.2476 39.341 20.2476 37.2723C20.2476 35.2036 21.7175 33.0584 22.928 32.6682C24.3115 33.2925 25.4355 35.2036 25.4355 37.2723Z" fill="#465430"/>
<path d="M21.4581 41.4861C24.5709 42.8907 21.2852 44.9976 19.0371 46.0901C16.4431 46.4023 14.5409 51.5457 14.5409 50.382C14.5409 49.2184 11.6875 48.119 13.6762 46.6364C16.1594 46.6364 20.5935 43.9052 21.4581 41.4861Z" fill="#6A7B4E"/>
<path d="M21.4581 41.4861C24.5709 42.8907 21.2852 44.9976 19.0371 46.0901C16.4431 46.4023 14.5409 51.5457 14.5409 50.382C14.5409 49.2184 11.6875 48.119 13.6762 46.6364C16.1594 46.6364 20.5935 43.9052 21.4581 41.4861Z" fill="#6A7B4E"/>
<path d="M24.2035 41.4861C21.0907 42.8907 24.3764 44.9976 26.6245 46.0901C29.2185 46.4023 31.1208 51.5457 31.1208 50.382C31.1208 49.2184 33.9742 48.119 31.9854 46.6364C29.5021 46.6364 25.0682 43.9052 24.2035 41.4861Z" fill="#6A7B4E"/>
<path d="M24.2035 41.4861C21.0907 42.8907 24.3764 44.9976 26.6245 46.0901C29.2185 46.4023 31.1208 51.5457 31.1208 50.382C31.1208 49.2184 33.9742 48.119 31.9854 46.6364C29.5021 46.6364 25.0682 43.9052 24.2035 41.4861Z" fill="#6A7B4E"/>
<path d="M25.6085 47.8848C25.6085 49.6949 24.4563 50.616 22.9281 50.616C21.4001 50.616 20.3341 49.6949 20.3341 47.8848C20.3341 46.0747 21.4001 44.7634 22.9281 44.7634C24.4563 44.7634 25.6085 46.0747 25.6085 47.8848Z" fill="#BBBB6C"/>
<path d="M27.4243 47.8067C27.9431 50.538 25.7365 53.6593 23.0145 53.6593C20.2926 53.6593 18.0859 50.2258 18.4318 47.8067C19.1235 46.9484 20.2476 51.5524 22.928 51.0062C26.0408 51.7865 26.4732 45.6998 27.4243 47.8067Z" fill="#3C4318"/>
<path d="M25.3491 4.34167C25.3491 6.49654 24.3427 8.24341 23.101 8.24341C21.8594 8.24341 20.8529 6.49654 20.8529 4.34167C20.8529 2.18681 21.8594 0.439941 23.101 0.439941C24.3427 0.439941 25.3491 2.18681 25.3491 4.34167Z" fill="#BBBB6C"/>
</g>
<defs>
<filter id="filter0_d_34_2357" x="22.8177" y="7.38501" width="22.96" height="42.8682" filterUnits="userSpaceOnUse" color-interpolation-filters="sRGB">
<feFlood flood-opacity="0" result="BackgroundImageFix"/>
<feColorMatrix in="SourceAlpha" type="matrix" values="0 0 0 0 0 0 0 0 0 0 0 0 0 0 0 0 0 0 127 0" result="hardAlpha"/>
<feOffset dy="4"/>
<feGaussianBlur stdDeviation="2"/>
<feComposite in2="hardAlpha" operator="out"/>
<feColorMatrix type="matrix" values="0 0 0 0 0 0 0 0 0 0 0 0 0 0 0 0 0 0 0.25 0"/>
<feBlend mode="normal" in2="BackgroundImageFix" result="effect1_dropShadow_34_2357"/>
<feBlend mode="normal" in="SourceGraphic" in2="effect1_dropShadow_34_2357" result="shape"/>
</filter>
<filter id="filter1_d_34_2357" x="23.0353" y="3.41968" width="19.6737" height="13.2529" filterUnits="userSpaceOnUse" color-interpolation-filters="sRGB">
<feFlood flood-opacity="0" result="BackgroundImageFix"/>
<feColorMatrix in="SourceAlpha" type="matrix" values="0 0 0 0 0 0 0 0 0 0 0 0 0 0 0 0 0 0 127 0" result="hardAlpha"/>
<feOffset dy="4"/>
<feGaussianBlur stdDeviation="2"/>
<feComposite in2="hardAlpha" operator="out"/>
<feColorMatrix type="matrix" values="0 0 0 0 0 0 0 0 0 0 0 0 0 0 0 0 0 0 0.25 0"/>
<feBlend mode="normal" in2="BackgroundImageFix" result="effect1_dropShadow_34_2357"/>
<feBlend mode="normal" in="SourceGraphic" in2="effect1_dropShadow_34_2357" result="shape"/>
</filter>
<filter id="filter2_d_34_2357" x="-0.022583" y="7.37549" width="22.8881" height="42.8684" filterUnits="userSpaceOnUse" color-interpolation-filters="sRGB">
<feFlood flood-opacity="0" result="BackgroundImageFix"/>
<feColorMatrix in="SourceAlpha" type="matrix" values="0 0 0 0 0 0 0 0 0 0 0 0 0 0 0 0 0 0 127 0" result="hardAlpha"/>
<feOffset dy="4"/>
<feGaussianBlur stdDeviation="2"/>
<feComposite in2="hardAlpha" operator="out"/>
<feColorMatrix type="matrix" values="0 0 0 0 0 0 0 0 0 0 0 0 0 0 0 0 0 0 0.25 0"/>
<feBlend mode="normal" in2="BackgroundImageFix" result="effect1_dropShadow_34_2357"/>
<feBlend mode="normal" in="SourceGraphic" in2="effect1_dropShadow_34_2357" result="shape"/>
</filter>
<filter id="filter3_d_34_2357" x="2.97424" y="3.35498" width="19.674" height="13.3081" filterUnits="userSpaceOnUse" color-interpolation-filters="sRGB">
<feFlood flood-opacity="0" result="BackgroundImageFix"/>
<feColorMatrix in="SourceAlpha" type="matrix" values="0 0 0 0 0 0 0 0 0 0 0 0 0 0 0 0 0 0 127 0" result="hardAlpha"/>
<feOffset dy="4"/>
<feGaussianBlur stdDeviation="2"/>
<feComposite in2="hardAlpha" operator="out"/>
<feColorMatrix type="matrix" values="0 0 0 0 0 0 0 0 0 0 0 0 0 0 0 0 0 0 0.25 0"/>
<feBlend mode="normal" in2="BackgroundImageFix" result="effect1_dropShadow_34_2357"/>
<feBlend mode="normal" in="SourceGraphic" in2="effect1_dropShadow_34_2357" result="shape"/>
</filter>
<clipPath id="clip0_34_2357">
<rect width="46" height="54" fill="white"/>
</clipPath>
</defs>
</svg>
